<mxfile host="65bd71144e">
    <diagram id="IDprhGrEn4-6cy8bHLo-" name="Page-1">
        <mxGraphModel dx="1762" dy="873" grid="1" gridSize="10" guides="1" tooltips="1" connect="1" arrows="1" fold="1" page="1" pageScale="1" pageWidth="100" pageHeight="100" math="0" shadow="0">
            <root>
                <mxCell id="0"/>
                <mxCell id="1" parent="0"/>
                <mxCell id="20" value="" style="rounded=1;whiteSpace=wrap;html=1;fillColor=#f5f5f5;fontColor=#333333;strokeColor=none;" parent="1" vertex="1">
                    <mxGeometry x="-100" y="-49" width="160" height="369" as="geometry"/>
                </mxCell>
                <mxCell id="19" value="" style="rounded=1;whiteSpace=wrap;html=1;fillColor=#f5f5f5;fontColor=#333333;strokeColor=none;" parent="1" vertex="1">
                    <mxGeometry x="-270" y="-50" width="160" height="270" as="geometry"/>
                </mxCell>
                <mxCell id="34" style="edgeStyle=orthogonalEdgeStyle;html=1;exitX=0.5;exitY=1;exitDx=0;exitDy=0;entryX=0.5;entryY=0;entryDx=0;entryDy=0;fillColor=#fff2cc;strokeColor=#d6b656;strokeWidth=3;" edge="1" parent="1" source="2" target="31">
                    <mxGeometry relative="1" as="geometry"/>
                </mxCell>
                <mxCell id="2" value="同意退款" style="rounded=1;whiteSpace=wrap;html=1;fontFamily=仿宋;fillColor=#fff2cc;strokeColor=#d6b656;strokeWidth=2;fontSize=15;" parent="1" vertex="1">
                    <mxGeometry x="-250" width="120" height="60" as="geometry"/>
                </mxCell>
                <mxCell id="32" style="edgeStyle=none;html=1;exitX=0.5;exitY=1;exitDx=0;exitDy=0;entryX=0.5;entryY=0;entryDx=0;entryDy=0;fillColor=#f8cecc;strokeColor=#b85450;strokeWidth=3;" edge="1" parent="1" source="6" target="31">
                    <mxGeometry relative="1" as="geometry"/>
                </mxCell>
                <mxCell id="6" value="支付服务费" style="whiteSpace=wrap;html=1;rounded=1;fontFamily=仿宋;fillColor=#f8cecc;strokeColor=#b85450;strokeWidth=2;fontSize=15;" parent="1" vertex="1">
                    <mxGeometry x="-80" width="120" height="60" as="geometry"/>
                </mxCell>
                <mxCell id="21" value="中标供应商" style="text;html=1;align=center;verticalAlign=middle;resizable=0;points=[];autosize=1;strokeColor=none;fillColor=none;fontFamily=黑体;fontStyle=1;fontSize=18;" parent="1" vertex="1">
                    <mxGeometry x="-75" y="-48" width="110" height="40" as="geometry"/>
                </mxCell>
                <mxCell id="22" value="采购人" style="text;html=1;align=center;verticalAlign=middle;resizable=0;points=[];autosize=1;strokeColor=none;fillColor=none;fontStyle=1;fontFamily=黑体;fontSize=18;" parent="1" vertex="1">
                    <mxGeometry x="-230" y="-49" width="80" height="40" as="geometry"/>
                </mxCell>
                <mxCell id="44" style="edgeStyle=orthogonalEdgeStyle;html=1;exitX=0.5;exitY=1;exitDx=0;exitDy=0;entryX=0.5;entryY=0;entryDx=0;entryDy=0;strokeWidth=3;fillColor=#f8cecc;strokeColor=#b85450;" edge="1" parent="1" source="31" target="42">
                    <mxGeometry relative="1" as="geometry"/>
                </mxCell>
                <mxCell id="31" value="五日内有息" style="whiteSpace=wrap;html=1;rounded=1;fontFamily=仿宋;fillColor=#f8cecc;strokeColor=#b85450;strokeWidth=2;fontSize=15;" vertex="1" parent="1">
                    <mxGeometry x="-80" y="130" width="120" height="60" as="geometry"/>
                </mxCell>
                <mxCell id="35" value="" style="rounded=1;whiteSpace=wrap;html=1;fillColor=#f5f5f5;fontColor=#333333;strokeColor=none;" vertex="1" parent="1">
                    <mxGeometry x="-440" y="-48" width="160" height="368" as="geometry"/>
                </mxCell>
                <mxCell id="38" value="未中标供应商" style="text;html=1;align=center;verticalAlign=middle;resizable=0;points=[];autosize=1;strokeColor=none;fillColor=none;fontFamily=黑体;fontStyle=1;fontSize=18;" vertex="1" parent="1">
                    <mxGeometry x="-425" y="-47" width="130" height="40" as="geometry"/>
                </mxCell>
                <mxCell id="43" style="edgeStyle=orthogonalEdgeStyle;html=1;exitX=0.5;exitY=1;exitDx=0;exitDy=0;entryX=0.5;entryY=0;entryDx=0;entryDy=0;strokeWidth=3;fillColor=#f8cecc;strokeColor=#b85450;" edge="1" parent="1" source="39" target="41">
                    <mxGeometry relative="1" as="geometry"/>
                </mxCell>
                <mxCell id="39" value="五日内有息" style="whiteSpace=wrap;html=1;rounded=1;fontFamily=仿宋;fillColor=#f8cecc;strokeColor=#b85450;strokeWidth=2;fontSize=15;" vertex="1" parent="1">
                    <mxGeometry x="-420" y="130" width="120" height="60" as="geometry"/>
                </mxCell>
                <mxCell id="40" style="edgeStyle=orthogonalEdgeStyle;html=1;exitX=0.5;exitY=1;exitDx=0;exitDy=0;entryX=0.5;entryY=0;entryDx=0;entryDy=0;fillColor=#fff2cc;strokeColor=#d6b656;strokeWidth=3;" edge="1" parent="1" source="2" target="39">
                    <mxGeometry relative="1" as="geometry"/>
                </mxCell>
                <mxCell id="41" value="&lt;div class=&quot;lake-content&quot;&gt;&lt;span class=&quot;ne-text&quot;&gt;正在退款中&lt;/span&gt;&lt;/div&gt;" style="whiteSpace=wrap;html=1;rounded=1;fontFamily=仿宋;fillColor=#f8cecc;strokeColor=#b85450;strokeWidth=2;fontSize=15;" vertex="1" parent="1">
                    <mxGeometry x="-420" y="230" width="120" height="60" as="geometry"/>
                </mxCell>
                <mxCell id="42" value="&lt;div class=&quot;lake-content&quot;&gt;&lt;span class=&quot;ne-text&quot;&gt;正在退款中&lt;/span&gt;&lt;/div&gt;" style="whiteSpace=wrap;html=1;rounded=1;fontFamily=仿宋;fillColor=#f8cecc;strokeColor=#b85450;strokeWidth=2;fontSize=15;" vertex="1" parent="1">
                    <mxGeometry x="-80" y="240" width="120" height="60" as="geometry"/>
                </mxCell>
            </root>
        </mxGraphModel>
    </diagram>
</mxfile>